<svg xmlns="http://www.w3.org/2000/svg" xmlns:xlink="http://www.w3.org/1999/xlink" width="500" zoomAndPan="magnify" viewBox="0 0 375 374.999991" height="500" preserveAspectRatio="xMidYMid meet" version="1.0"><defs><g/><clipPath id="14662990cc"><path d="M 118.425781 91.691406 L 256.425781 91.691406 L 256.425781 227.441406 L 118.425781 227.441406 Z M 118.425781 91.691406 " clip-rule="nonzero"/></clipPath><clipPath id="d79652d46c"><path d="M 199.542969 107.289062 C 201.265625 107.289062 202.65625 108.679688 202.65625 110.402344 C 202.65625 112.125 201.265625 113.519531 199.542969 113.519531 C 197.820312 113.519531 196.429688 112.125 196.429688 110.402344 C 196.429688 108.679688 197.820312 107.289062 199.542969 107.289062 Z M 250.4375 157.941406 C 250.4375 159.5 249.292969 160.78125 247.796875 161.011719 C 246.988281 172.539062 243.082031 183.222656 236.886719 192.230469 C 238.066406 193.367188 238.808594 194.949219 238.808594 196.71875 C 238.808594 200.160156 236.019531 202.949219 232.582031 202.949219 C 231.199219 202.949219 229.925781 202.480469 228.894531 201.71875 C 219.832031 210.554688 208.140625 216.691406 195.113281 218.8125 C 195.113281 218.871094 195.132812 218.929688 195.132812 218.992188 C 195.132812 223.652344 191.359375 227.421875 186.707031 227.421875 C 182.15625 227.421875 178.476562 223.804688 178.308594 219.296875 C 159.5 217.3125 143.132812 207.027344 132.945312 192.164062 C 132.324219 192.503906 131.628906 192.710938 130.871094 192.710938 C 128.441406 192.710938 126.46875 190.734375 126.46875 188.300781 C 126.46875 186.742188 127.28125 185.378906 128.5 184.597656 C 124.289062 176.144531 121.910156 166.625 121.910156 156.558594 C 121.910156 153.238281 122.203125 149.957031 122.71875 146.726562 C 120.234375 145.90625 118.425781 143.585938 118.425781 140.828125 C 118.425781 137.386719 121.214844 134.597656 124.652344 134.597656 C 125.0625 134.597656 125.46875 134.644531 125.859375 134.714844 C 131.515625 119.503906 142.925781 106.671875 158.023438 99.519531 C 158.054688 99.503906 158.089844 99.492188 158.128906 99.472656 C 158 98.980469 157.914062 98.472656 157.914062 97.941406 C 157.914062 94.5 160.703125 91.710938 164.140625 91.710938 C 166.644531 91.710938 168.796875 93.203125 169.777344 95.335938 C 169.8125 95.328125 169.84375 95.316406 169.871094 95.308594 L 170.097656 96.230469 C 170.253906 96.773438 170.363281 97.339844 170.363281 97.933594 C 170.363281 99.113281 170.015625 100.207031 169.449219 101.144531 L 178.527344 108.035156 C 179.070312 107.566406 179.773438 107.273438 180.546875 107.273438 C 182.269531 107.273438 183.660156 108.667969 183.660156 110.390625 C 183.660156 111.382812 183.191406 112.257812 182.460938 112.828125 L 189.792969 127.835938 C 190.210938 127.703125 190.648438 127.609375 191.113281 127.609375 C 192.429688 127.609375 193.597656 128.199219 194.40625 129.117188 L 205.0625 122.253906 C 204.9375 121.910156 204.855469 121.546875 204.855469 121.160156 C 204.855469 119.4375 206.246094 118.046875 207.96875 118.046875 C 209.691406 118.046875 211.082031 119.4375 211.082031 121.160156 C 211.082031 121.816406 210.878906 122.421875 210.53125 122.925781 L 224.0625 137.222656 C 224.78125 136.726562 225.640625 136.425781 226.582031 136.425781 C 229.011719 136.425781 230.984375 138.402344 230.984375 140.835938 C 230.984375 143.042969 229.355469 144.859375 227.238281 145.175781 L 227.238281 170.730469 C 228.050781 170.847656 228.78125 171.191406 229.382812 171.695312 L 244.265625 158.414062 C 244.246094 158.261719 244.21875 158.109375 244.21875 157.949219 C 244.21875 156.226562 245.609375 154.832031 247.332031 154.832031 C 249.046875 154.828125 250.4375 156.21875 250.4375 157.941406 Z M 223.308594 143.75 L 207.941406 153.832031 C 207.949219 153.90625 207.960938 153.980469 207.960938 154.058594 C 207.960938 154.269531 207.941406 154.476562 207.902344 154.675781 L 224.039062 171.472656 C 224.585938 171.082031 225.230469 170.820312 225.925781 170.722656 L 225.925781 145.164062 C 224.886719 145.011719 223.976562 144.5 223.308594 143.75 Z M 222.175781 175.058594 C 222.175781 174.042969 222.527344 173.128906 223.105469 172.378906 L 207.320312 155.941406 C 207.070312 156.265625 206.765625 156.539062 206.40625 156.742188 L 201.253906 177.03125 C 201.894531 177.304688 202.445312 177.730469 202.890625 178.253906 L 222.191406 175.109375 C 222.183594 175.089844 222.175781 175.078125 222.175781 175.058594 Z M 167.507812 135.4375 C 166.394531 137.128906 164.484375 138.242188 162.3125 138.242188 C 160.957031 138.242188 159.71875 137.796875 158.691406 137.0625 L 147.285156 149.882812 C 148.277344 150.976562 148.902344 152.414062 148.914062 154.003906 L 160.261719 155.097656 C 160.949219 151.140625 164.386719 148.121094 168.539062 148.121094 C 170.507812 148.121094 172.289062 148.820312 173.726562 149.949219 L 180.761719 142.300781 Z M 181.675781 141.3125 L 187.695312 134.761719 C 187.21875 134.167969 186.894531 133.457031 186.773438 132.667969 L 168.472656 132.667969 C 168.414062 133.230469 168.300781 133.773438 168.101562 134.277344 Z M 186.714844 164.988281 C 186.714844 164.761719 186.742188 164.539062 186.789062 164.324219 L 176.382812 159.59375 C 175.164062 162.75 172.125 164.988281 168.539062 164.988281 C 167.621094 164.988281 166.746094 164.804688 165.917969 164.53125 L 160.480469 177.535156 C 161.109375 177.988281 161.613281 178.597656 161.929688 179.3125 L 186.726562 165.128906 C 186.722656 165.074219 186.714844 165.035156 186.714844 164.988281 Z M 146.230469 159.183594 L 156.023438 177.140625 C 156.597656 176.859375 157.234375 176.695312 157.914062 176.695312 C 158.40625 176.695312 158.871094 176.792969 159.3125 176.941406 L 164.710938 164.027344 C 161.996094 162.628906 160.113281 159.824219 160.113281 156.558594 C 160.113281 156.503906 160.128906 156.453125 160.128906 156.398438 L 148.796875 155.304688 C 148.472656 156.910156 147.53125 158.28125 146.230469 159.183594 Z M 153.875 182.847656 L 135.230469 187.8125 C 135.25 187.96875 135.277344 188.121094 135.277344 188.289062 L 164.394531 193.652344 C 164.988281 191.921875 166.613281 190.675781 168.539062 190.675781 C 169.253906 190.675781 169.917969 190.859375 170.515625 191.15625 L 187.542969 167.089844 C 187.355469 166.890625 187.203125 166.664062 187.078125 166.421875 L 162.265625 180.617188 C 162.289062 180.777344 162.3125 180.9375 162.3125 181.097656 C 162.3125 183.527344 160.339844 185.503906 157.910156 185.503906 C 156.109375 185.503906 154.550781 184.410156 153.875 182.847656 Z M 189.828125 161.875 C 190.65625 161.875 191.402344 162.203125 191.960938 162.734375 L 202.214844 155.695312 C 201.914062 155.21875 201.738281 154.660156 201.738281 154.058594 C 201.738281 153.773438 201.789062 153.507812 201.855469 153.242188 L 181.960938 142.929688 L 174.691406 150.832031 C 176.089844 152.335938 176.964844 154.335938 176.964844 156.558594 C 176.964844 157.167969 176.890625 157.765625 176.773438 158.332031 L 187.335938 163.140625 C 187.898438 162.378906 188.800781 161.875 189.828125 161.875 Z M 191.953125 167.25 L 197.847656 177.027344 C 198.371094 176.808594 198.941406 176.6875 199.539062 176.6875 C 199.691406 176.6875 199.828125 176.714844 199.976562 176.734375 L 204.949219 157.160156 C 204.914062 157.160156 204.890625 157.167969 204.855469 157.167969 C 204.21875 157.167969 203.632812 156.976562 203.132812 156.644531 L 192.703125 163.796875 C 192.855469 164.160156 192.933594 164.558594 192.933594 164.976562 C 192.933594 165.882812 192.554688 166.6875 191.953125 167.25 Z M 205.699219 151.074219 C 206.492188 151.300781 207.148438 151.824219 207.546875 152.527344 L 222.582031 142.65625 C 222.324219 142.09375 222.171875 141.476562 222.171875 140.820312 C 222.171875 139.800781 222.535156 138.867188 223.117188 138.125 L 209.574219 123.8125 C 209.195312 124.039062 208.769531 124.183594 208.3125 124.238281 Z M 188.640625 135.664062 L 182.875 141.933594 L 202.457031 152.089844 C 202.9375 151.511719 203.609375 151.109375 204.394531 150.996094 L 207.015625 124.117188 C 206.539062 123.964844 206.101562 123.714844 205.757812 123.363281 L 195.121094 130.214844 C 195.371094 130.765625 195.515625 131.375 195.515625 132.019531 C 195.515625 134.453125 193.542969 136.425781 191.113281 136.425781 C 190.199219 136.417969 189.351562 136.140625 188.640625 135.664062 Z M 166.796875 127.710938 C 167.726562 128.679688 168.320312 129.949219 168.472656 131.363281 L 186.78125 131.363281 C 186.964844 130.136719 187.640625 129.070312 188.621094 128.394531 L 181.304688 113.414062 C 181.066406 113.472656 180.8125 113.511719 180.554688 113.511719 C 180.023438 113.511719 179.535156 113.367188 179.097656 113.132812 Z M 163.292969 125.886719 C 164.214844 126.03125 165.070312 126.359375 165.804688 126.863281 L 178.089844 112.296875 C 177.6875 111.773438 177.429688 111.117188 177.429688 110.402344 C 177.429688 109.933594 177.542969 109.488281 177.726562 109.089844 L 168.652344 102.203125 C 167.585938 103.335938 166.109375 104.058594 164.445312 104.144531 Z M 129.90625 137.511719 C 130.15625 137.910156 130.347656 138.335938 130.507812 138.785156 L 156.167969 132.78125 C 156.132812 132.527344 156.085938 132.277344 156.085938 132.011719 C 156.085938 128.683594 158.703125 125.988281 161.988281 125.8125 L 163.15625 104.066406 C 162.179688 103.914062 161.289062 103.542969 160.527344 102.992188 Z M 127.101562 135.101562 C 127.851562 135.425781 128.527344 135.890625 129.089844 136.464844 L 159.550781 102.125 C 159.160156 101.699219 158.835938 101.214844 158.578125 100.699219 C 143.820312 107.691406 132.652344 120.234375 127.101562 135.101562 Z M 130.410156 183.933594 L 124.917969 147.027344 C 124.824219 147.03125 124.746094 147.050781 124.652344 147.050781 C 124.425781 147.050781 124.214844 147.011719 124.003906 146.984375 C 123.507812 150.121094 123.230469 153.316406 123.230469 156.542969 C 123.230469 166.425781 125.574219 175.765625 129.714844 184.058594 C 129.933594 184 130.171875 183.960938 130.410156 183.933594 Z M 140.269531 159.796875 C 138.039062 158.851562 136.476562 156.636719 136.476562 154.058594 C 136.476562 150.617188 139.265625 147.828125 142.703125 147.828125 C 144.054688 147.828125 145.296875 148.273438 146.324219 149.007812 L 157.722656 136.1875 C 157.167969 135.570312 156.738281 134.847656 156.457031 134.054688 L 130.800781 140.058594 C 130.832031 140.3125 130.878906 140.5625 130.878906 140.828125 C 130.878906 143.722656 128.890625 146.144531 126.210938 146.839844 L 131.738281 183.980469 C 132.117188 184.050781 132.46875 184.191406 132.800781 184.351562 Z M 133.925781 185.125 C 134.34375 185.523438 134.679688 186.007812 134.914062 186.542969 L 153.558594 181.578125 C 153.539062 181.421875 153.511719 181.261719 153.511719 181.097656 C 153.511719 179.816406 154.0625 178.675781 154.933594 177.875 L 145.09375 159.8125 C 144.359375 160.117188 143.550781 160.289062 142.703125 160.289062 C 142.296875 160.289062 141.90625 160.242188 141.523438 160.167969 Z M 178.761719 216.3125 L 134.078125 191.484375 C 144.046875 205.980469 160.023438 216.023438 178.390625 217.96875 C 178.457031 217.398438 178.582031 216.84375 178.761719 216.3125 Z M 181.125 212.707031 L 170.644531 198.921875 C 170.015625 199.265625 169.308594 199.476562 168.539062 199.476562 C 166.109375 199.476562 164.136719 197.5 164.136719 195.070312 C 164.136719 195.023438 164.148438 194.976562 164.148438 194.921875 L 135.066406 189.566406 C 134.980469 189.839844 134.871094 190.105469 134.742188 190.347656 L 179.269531 215.09375 C 179.746094 214.191406 180.371094 213.382812 181.125 212.707031 Z M 189 167.976562 C 188.867188 167.9375 188.726562 167.90625 188.601562 167.851562 L 171.585938 191.90625 C 172.421875 192.710938 172.945312 193.828125 172.945312 195.074219 C 172.945312 196.269531 172.46875 197.347656 171.691406 198.144531 L 182.152344 211.90625 C 183.421875 211.082031 184.925781 210.597656 186.542969 210.566406 Z M 189.019531 210.90625 L 197.5625 185.007812 C 196.132812 184.277344 195.140625 182.804688 195.140625 181.089844 C 195.140625 179.722656 195.769531 178.523438 196.742188 177.714844 L 190.835938 167.910156 C 190.664062 167.972656 190.488281 168.019531 190.304688 168.042969 L 187.847656 210.652344 C 188.246094 210.710938 188.636719 210.796875 189.019531 210.90625 Z M 223.957031 178.578125 C 223.238281 178.035156 222.695312 177.277344 222.410156 176.394531 L 203.625 179.457031 C 203.828125 179.96875 203.949219 180.519531 203.949219 181.097656 C 203.949219 183.527344 201.976562 185.503906 199.542969 185.503906 C 199.292969 185.503906 199.046875 185.472656 198.800781 185.429688 L 190.25 211.347656 C 191.058594 211.71875 191.789062 212.21875 192.429688 212.8125 Z M 227.9375 200.816406 C 227.898438 200.769531 227.859375 200.714844 227.820312 200.671875 L 194.597656 216.082031 C 194.761719 216.539062 194.902344 217.007812 194.992188 217.5 C 207.691406 215.410156 219.089844 209.425781 227.9375 200.816406 Z M 230.304688 190.925781 L 227.105469 179.40625 C 226.925781 179.425781 226.753906 179.457031 226.574219 179.457031 C 226.070312 179.457031 225.59375 179.359375 225.144531 179.199219 L 193.296875 213.78125 C 193.578125 214.132812 193.816406 214.496094 194.035156 214.894531 L 227.078125 199.570312 C 226.628906 198.707031 226.347656 197.746094 226.347656 196.707031 C 226.363281 194.074219 228 191.839844 230.304688 190.925781 Z M 246.492188 160.925781 C 245.78125 160.726562 245.167969 160.296875 244.761719 159.699219 L 230.257812 172.644531 C 230.707031 173.335938 230.980469 174.164062 230.980469 175.050781 C 230.980469 176.839844 229.90625 178.378906 228.371094 179.066406 L 231.5625 190.582031 C 231.894531 190.527344 232.230469 190.476562 232.582031 190.476562 C 233.789062 190.476562 234.902344 190.832031 235.855469 191.421875 C 241.894531 182.628906 245.703125 172.1875 246.492188 160.925781 Z M 253.3125 132.011719 C 251.589844 132.011719 250.199219 133.402344 250.199219 135.128906 C 250.199219 136.851562 251.589844 138.242188 253.3125 138.242188 C 255.035156 138.242188 256.425781 136.851562 256.425781 135.128906 C 256.425781 133.410156 255.027344 132.011719 253.3125 132.011719 Z M 197.648438 97.910156 C 200.167969 97.910156 200.171875 93.992188 197.648438 93.992188 C 195.132812 93.992188 195.132812 97.910156 197.648438 97.910156 Z M 230.304688 120.539062 C 232.820312 120.539062 232.828125 116.621094 230.304688 116.621094 C 227.785156 116.621094 227.78125 120.539062 230.304688 120.539062 Z M 220.28125 107.289062 C 222.800781 107.289062 222.804688 103.371094 220.28125 103.371094 C 217.765625 103.371094 217.757812 107.289062 220.28125 107.289062 Z M 220.28125 107.289062 " clip-rule="nonzero"/></clipPath><linearGradient x1="1820.417423" gradientTransform="matrix(0.0662347, 0, 0, 0.066285, 118.426722, 91.710658)" y1="2211.287452" x2="319.07143" gradientUnits="userSpaceOnUse" y2="-198.765969" id="e44f2b02c0"><stop stop-opacity="1" stop-color="rgb(7.516479%, 41.668701%, 71.578979%)" offset="0"/><stop stop-opacity="1" stop-color="rgb(7.397461%, 41.7099%, 71.612549%)" offset="0.03125"/><stop stop-opacity="1" stop-color="rgb(7.16095%, 41.793823%, 71.679688%)" offset="0.0625"/><stop stop-opacity="1" stop-color="rgb(6.924438%, 41.876221%, 71.7453%)" offset="0.09375"/><stop stop-opacity="1" stop-color="rgb(6.687927%, 41.958618%, 71.812439%)" offset="0.125"/><stop stop-opacity="1" stop-color="rgb(6.44989%, 42.042542%, 71.879578%)" offset="0.15625"/><stop stop-opacity="1" stop-color="rgb(6.213379%, 42.124939%, 71.946716%)" offset="0.1875"/><stop stop-opacity="1" stop-color="rgb(5.976868%, 42.207336%, 72.012329%)" offset="0.21875"/><stop stop-opacity="1" stop-color="rgb(5.740356%, 42.289734%, 72.079468%)" offset="0.25"/><stop stop-opacity="1" stop-color="rgb(5.503845%, 42.373657%, 72.146606%)" offset="0.28125"/><stop stop-opacity="1" stop-color="rgb(5.267334%, 42.456055%, 72.213745%)" offset="0.3125"/><stop stop-opacity="1" stop-color="rgb(5.030823%, 42.538452%, 72.279358%)" offset="0.34375"/><stop stop-opacity="1" stop-color="rgb(4.794312%, 42.62085%, 72.346497%)" offset="0.375"/><stop stop-opacity="1" stop-color="rgb(4.556274%, 42.704773%, 72.413635%)" offset="0.387981"/><stop stop-opacity="1" stop-color="rgb(4.438782%, 42.745972%, 72.447205%)" offset="0.40625"/><stop stop-opacity="1" stop-color="rgb(4.319763%, 42.78717%, 72.480774%)" offset="0.4375"/><stop stop-opacity="1" stop-color="rgb(4.083252%, 42.869568%, 72.546387%)" offset="0.46875"/><stop stop-opacity="1" stop-color="rgb(3.846741%, 42.953491%, 72.613525%)" offset="0.5"/><stop stop-opacity="1" stop-color="rgb(3.610229%, 43.035889%, 72.680664%)" offset="0.53125"/><stop stop-opacity="1" stop-color="rgb(3.373718%, 43.118286%, 72.747803%)" offset="0.5625"/><stop stop-opacity="1" stop-color="rgb(3.137207%, 43.200684%, 72.813416%)" offset="0.59375"/><stop stop-opacity="1" stop-color="rgb(2.900696%, 43.284607%, 72.880554%)" offset="0.612019"/><stop stop-opacity="1" stop-color="rgb(2.783203%, 43.325806%, 72.914124%)" offset="0.625"/><stop stop-opacity="1" stop-color="rgb(2.664185%, 43.367004%, 72.947693%)" offset="0.65625"/><stop stop-opacity="1" stop-color="rgb(2.426147%, 43.449402%, 73.014832%)" offset="0.6875"/><stop stop-opacity="1" stop-color="rgb(2.189636%, 43.531799%, 73.080444%)" offset="0.71875"/><stop stop-opacity="1" stop-color="rgb(1.953125%, 43.615723%, 73.147583%)" offset="0.75"/><stop stop-opacity="1" stop-color="rgb(1.716614%, 43.69812%, 73.214722%)" offset="0.78125"/><stop stop-opacity="1" stop-color="rgb(1.480103%, 43.780518%, 73.28186%)" offset="0.8125"/><stop stop-opacity="1" stop-color="rgb(1.243591%, 43.862915%, 73.347473%)" offset="0.84375"/><stop stop-opacity="1" stop-color="rgb(1.00708%, 43.946838%, 73.414612%)" offset="0.875"/><stop stop-opacity="1" stop-color="rgb(0.770569%, 44.029236%, 73.48175%)" offset="0.90625"/><stop stop-opacity="1" stop-color="rgb(0.532532%, 44.111633%, 73.548889%)" offset="0.9375"/><stop stop-opacity="1" stop-color="rgb(0.296021%, 44.195557%, 73.614502%)" offset="0.96875"/><stop stop-opacity="1" stop-color="rgb(0.088501%, 44.267273%, 73.674011%)" offset="1"/></linearGradient></defs><rect x="-37.5" width="450" fill="#ffffff" y="-37.499999" height="449.999989" fill-opacity="1"/><rect x="-37.5" width="450" fill="#000000" y="-37.499999" height="449.999989" fill-opacity="1"/><g clip-path="url(#14662990cc)"><g clip-path="url(#d79652d46c)"><path fill="url(#e44f2b02c0)" d="M 118.425781 91.710938 L 118.425781 227.421875 L 256.425781 227.421875 L 256.425781 91.710938 Z M 118.425781 91.710938 " fill-rule="nonzero"/></g></g><g fill="#ffffff" fill-opacity="1"><g transform="translate(121.457686, 270.058326)"><g><path d="M 18.59375 0 L 13.15625 -9.5625 L 9.28125 -9.5625 L 9.28125 0 L 3.203125 0 L 3.203125 -28 L 14.515625 -28 C 16.378906 -28 18.046875 -27.597656 19.515625 -26.796875 C 20.984375 -25.992188 22.144531 -24.898438 23 -23.515625 C 23.851562 -22.128906 24.28125 -20.53125 24.28125 -18.71875 C 24.28125 -16.90625 23.816406 -15.285156 22.890625 -13.859375 C 21.972656 -12.429688 20.742188 -11.34375 19.203125 -10.59375 L 25.40625 0 Z M 9.28125 -22.40625 L 9.28125 -15.15625 L 14.125 -15.15625 C 15.375 -15.15625 16.359375 -15.492188 17.078125 -16.171875 C 17.796875 -16.859375 18.15625 -17.722656 18.15625 -18.765625 C 18.15625 -19.828125 17.796875 -20.695312 17.078125 -21.375 C 16.359375 -22.0625 15.375 -22.40625 14.125 -22.40625 Z M 9.28125 -22.40625 "/></g></g></g><g fill="#ffffff" fill-opacity="1"><g transform="translate(147.895058, 270.058326)"><g><path d="M 22.515625 -28 L 22.515625 -22.359375 L 14.71875 -22.359375 L 14.71875 0 L 8.640625 0 L 8.640625 -22.359375 L 0.875 -22.359375 L 0.875 -28 Z M 22.515625 -28 "/></g></g></g><g fill="#ffffff" fill-opacity="1"><g transform="translate(171.252734, 270.058326)"><g><path d="M 9.28125 -5.640625 L 20.4375 -5.640625 L 20.4375 0 L 3.203125 0 L 3.203125 -28 L 20 -28 L 20 -22.40625 L 9.28125 -22.40625 L 9.28125 -16.875 L 18.953125 -16.875 L 18.953125 -11.40625 L 9.28125 -11.40625 Z M 9.28125 -5.640625 "/></g></g></g><g fill="#ffffff" fill-opacity="1"><g transform="translate(193.610517, 270.058326)"><g><path d="M 16.046875 0.59375 C 13.984375 0.59375 12.070312 0.226562 10.3125 -0.5 C 8.5625 -1.226562 7.03125 -2.253906 5.71875 -3.578125 C 4.414062 -4.898438 3.398438 -6.445312 2.671875 -8.21875 C 1.953125 -9.988281 1.59375 -11.898438 1.59375 -13.953125 C 1.59375 -16.035156 1.953125 -17.96875 2.671875 -19.75 C 3.398438 -21.539062 4.414062 -23.097656 5.71875 -24.421875 C 7.03125 -25.742188 8.5625 -26.769531 10.3125 -27.5 C 12.070312 -28.226562 13.984375 -28.59375 16.046875 -28.59375 C 18.304688 -28.59375 20.382812 -28.125 22.28125 -27.1875 C 24.175781 -26.257812 25.757812 -24.957031 27.03125 -23.28125 C 28.3125 -21.601562 29.164062 -19.65625 29.59375 -17.4375 L 23.515625 -17.4375 C 22.960938 -19.09375 22.019531 -20.40625 20.6875 -21.375 C 19.351562 -22.351562 17.804688 -22.84375 16.046875 -22.84375 C 14.472656 -22.84375 13.054688 -22.445312 11.796875 -21.65625 C 10.546875 -20.875 9.550781 -19.816406 8.8125 -18.484375 C 8.082031 -17.148438 7.71875 -15.640625 7.71875 -13.953125 C 7.71875 -12.273438 8.082031 -10.773438 8.8125 -9.453125 C 9.550781 -8.140625 10.546875 -7.09375 11.796875 -6.3125 C 13.054688 -5.539062 14.472656 -5.15625 16.046875 -5.15625 C 17.878906 -5.15625 19.460938 -5.675781 20.796875 -6.71875 C 22.128906 -7.757812 23.050781 -9.171875 23.5625 -10.953125 L 29.6875 -10.953125 C 29.257812 -8.640625 28.410156 -6.613281 27.140625 -4.875 C 25.867188 -3.144531 24.28125 -1.800781 22.375 -0.84375 C 20.46875 0.113281 18.359375 0.59375 16.046875 0.59375 Z M 16.046875 0.59375 "/></g></g></g><g fill="#ffffff" fill-opacity="1"><g transform="translate(224.447455, 270.058326)"><g><path d="M 19.796875 -28 L 25.84375 -28 L 25.84375 0 L 19.796875 0 L 19.796875 -11.5625 L 9.28125 -11.5625 L 9.28125 0 L 3.203125 0 L 3.203125 -28 L 9.28125 -28 L 9.28125 -17.203125 L 19.796875 -17.203125 Z M 19.796875 -28 "/></g></g></g></svg>