<svg xmlns="http://www.w3.org/2000/svg" xmlns:xlink="http://www.w3.org/1999/xlink" width="500" zoomAndPan="magnify" viewBox="0 0 375 374.999991" height="500" preserveAspectRatio="xMidYMid meet" version="1.0"><defs><g/><clipPath id="ce52755c02"><path d="M 118.425781 119.605469 L 256.425781 119.605469 L 256.425781 255.355469 L 118.425781 255.355469 Z M 118.425781 119.605469 " clip-rule="nonzero"/></clipPath><clipPath id="ce0d098479"><path d="M 199.542969 135.203125 C 201.265625 135.203125 202.65625 136.59375 202.65625 138.316406 C 202.65625 140.042969 201.265625 141.433594 199.542969 141.433594 C 197.820312 141.433594 196.429688 140.042969 196.429688 138.316406 C 196.429688 136.59375 197.820312 135.203125 199.542969 135.203125 Z M 250.4375 185.859375 C 250.4375 187.414062 249.292969 188.695312 247.796875 188.925781 C 246.988281 200.453125 243.082031 211.140625 236.886719 220.148438 C 238.066406 221.28125 238.808594 222.863281 238.808594 224.632812 C 238.808594 228.074219 236.019531 230.867188 232.582031 230.867188 C 231.199219 230.867188 229.925781 230.394531 228.894531 229.632812 C 219.832031 238.46875 208.140625 244.605469 195.113281 246.726562 C 195.113281 246.785156 195.132812 246.847656 195.132812 246.90625 C 195.132812 251.566406 191.359375 255.335938 186.707031 255.335938 C 182.15625 255.335938 178.476562 251.71875 178.308594 247.210938 C 159.5 245.230469 143.132812 234.941406 132.945312 220.082031 C 132.324219 220.417969 131.628906 220.625 130.871094 220.625 C 128.441406 220.625 126.46875 218.648438 126.46875 216.214844 C 126.46875 214.660156 127.28125 213.292969 128.5 212.511719 C 124.289062 204.058594 121.910156 194.542969 121.910156 184.472656 C 121.910156 181.152344 122.203125 177.871094 122.71875 174.640625 C 120.234375 173.820312 118.425781 171.5 118.425781 168.742188 C 118.425781 165.304688 121.214844 162.511719 124.652344 162.511719 C 125.0625 162.511719 125.46875 162.558594 125.859375 162.632812 C 131.515625 147.417969 142.925781 134.585938 158.023438 127.433594 C 158.054688 127.421875 158.089844 127.40625 158.128906 127.386719 C 158 126.898438 157.914062 126.386719 157.914062 125.855469 C 157.914062 122.417969 160.703125 119.625 164.140625 119.625 C 166.644531 119.625 168.796875 121.117188 169.777344 123.25 C 169.8125 123.246094 169.84375 123.230469 169.871094 123.226562 L 170.097656 124.144531 C 170.253906 124.691406 170.363281 125.253906 170.363281 125.851562 C 170.363281 127.03125 170.015625 128.125 169.449219 129.058594 L 178.527344 135.953125 C 179.070312 135.480469 179.773438 135.191406 180.546875 135.191406 C 182.269531 135.191406 183.660156 136.582031 183.660156 138.304688 C 183.660156 139.300781 183.191406 140.175781 182.460938 140.746094 L 189.792969 155.75 C 190.210938 155.617188 190.648438 155.527344 191.113281 155.527344 C 192.429688 155.527344 193.597656 156.117188 194.40625 157.03125 L 205.0625 150.167969 C 204.9375 149.824219 204.855469 149.460938 204.855469 149.078125 C 204.855469 147.351562 206.246094 145.960938 207.96875 145.960938 C 209.691406 145.960938 211.082031 147.351562 211.082031 149.078125 C 211.082031 149.730469 210.878906 150.335938 210.53125 150.839844 L 224.0625 165.136719 C 224.78125 164.640625 225.640625 164.339844 226.582031 164.339844 C 229.011719 164.339844 230.984375 166.316406 230.984375 168.75 C 230.984375 170.957031 229.355469 172.773438 227.238281 173.089844 L 227.238281 198.644531 C 228.050781 198.761719 228.78125 199.109375 229.382812 199.613281 L 244.265625 186.328125 C 244.246094 186.175781 244.21875 186.023438 244.21875 185.863281 C 244.21875 184.140625 245.609375 182.75 247.332031 182.75 C 249.046875 182.742188 250.4375 184.132812 250.4375 185.859375 Z M 223.308594 171.667969 L 207.941406 181.75 C 207.949219 181.820312 207.960938 181.894531 207.960938 181.972656 C 207.960938 182.183594 207.941406 182.390625 207.902344 182.589844 L 224.039062 199.386719 C 224.585938 198.996094 225.230469 198.738281 225.925781 198.636719 L 225.925781 173.078125 C 224.886719 172.925781 223.976562 172.414062 223.308594 171.667969 Z M 222.175781 202.972656 C 222.175781 201.957031 222.527344 201.042969 223.105469 200.292969 L 207.320312 183.855469 C 207.070312 184.179688 206.765625 184.453125 206.40625 184.65625 L 201.253906 204.949219 C 201.894531 205.21875 202.445312 205.644531 202.890625 206.167969 L 222.191406 203.027344 C 222.183594 203.003906 222.175781 202.992188 222.175781 202.972656 Z M 167.507812 163.355469 C 166.394531 165.042969 164.484375 166.15625 162.3125 166.15625 C 160.957031 166.15625 159.71875 165.714844 158.691406 164.976562 L 147.285156 177.796875 C 148.277344 178.890625 148.902344 180.328125 148.914062 181.921875 L 160.261719 183.015625 C 160.949219 179.058594 164.386719 176.035156 168.539062 176.035156 C 170.507812 176.035156 172.289062 176.738281 173.726562 177.863281 L 180.761719 170.214844 Z M 181.675781 169.226562 L 187.695312 162.679688 C 187.21875 162.082031 186.894531 161.371094 186.773438 160.582031 L 168.472656 160.582031 C 168.414062 161.148438 168.300781 161.691406 168.101562 162.195312 Z M 186.714844 192.902344 C 186.714844 192.679688 186.742188 192.453125 186.789062 192.242188 L 176.382812 187.507812 C 175.164062 190.664062 172.125 192.902344 168.539062 192.902344 C 167.621094 192.902344 166.746094 192.71875 165.917969 192.445312 L 160.480469 205.453125 C 161.109375 205.902344 161.613281 206.511719 161.929688 207.226562 L 186.726562 193.042969 C 186.722656 192.988281 186.714844 192.949219 186.714844 192.902344 Z M 146.230469 187.097656 L 156.023438 205.054688 C 156.597656 204.777344 157.234375 204.609375 157.914062 204.609375 C 158.40625 204.609375 158.871094 204.710938 159.3125 204.855469 L 164.710938 191.941406 C 161.996094 190.542969 160.113281 187.738281 160.113281 184.472656 C 160.113281 184.417969 160.128906 184.367188 160.128906 184.3125 L 148.796875 183.21875 C 148.472656 184.824219 147.53125 186.195312 146.230469 187.097656 Z M 153.875 210.761719 L 135.230469 215.726562 C 135.25 215.886719 135.277344 216.039062 135.277344 216.203125 L 164.394531 221.566406 C 164.988281 219.835938 166.613281 218.589844 168.539062 218.589844 C 169.253906 218.589844 169.917969 218.773438 170.515625 219.074219 L 187.542969 195.003906 C 187.355469 194.804688 187.203125 194.582031 187.078125 194.335938 L 162.265625 208.535156 C 162.289062 208.691406 162.3125 208.851562 162.3125 209.011719 C 162.3125 211.445312 160.339844 213.417969 157.910156 213.417969 C 156.109375 213.417969 154.550781 212.324219 153.875 210.761719 Z M 189.828125 189.789062 C 190.65625 189.789062 191.402344 190.121094 191.960938 190.648438 L 202.214844 183.609375 C 201.914062 183.132812 201.738281 182.578125 201.738281 181.972656 C 201.738281 181.6875 201.789062 181.421875 201.855469 181.15625 L 181.960938 170.84375 L 174.691406 178.746094 C 176.089844 180.25 176.964844 182.25 176.964844 184.472656 C 176.964844 185.082031 176.890625 185.679688 176.773438 186.25 L 187.335938 191.054688 C 187.898438 190.292969 188.800781 189.789062 189.828125 189.789062 Z M 191.953125 195.164062 L 197.847656 204.941406 C 198.371094 204.722656 198.941406 204.601562 199.539062 204.601562 C 199.691406 204.601562 199.828125 204.628906 199.976562 204.648438 L 204.949219 185.074219 C 204.914062 185.074219 204.890625 185.082031 204.855469 185.082031 C 204.21875 185.082031 203.632812 184.890625 203.132812 184.558594 L 192.703125 191.710938 C 192.855469 192.074219 192.933594 192.472656 192.933594 192.890625 C 192.933594 193.796875 192.554688 194.601562 191.953125 195.164062 Z M 205.699219 178.992188 C 206.492188 179.214844 207.148438 179.738281 207.546875 180.441406 L 222.582031 170.574219 C 222.324219 170.007812 222.171875 169.390625 222.171875 168.734375 C 222.171875 167.714844 222.535156 166.78125 223.117188 166.039062 L 209.574219 151.726562 C 209.195312 151.953125 208.769531 152.097656 208.3125 152.152344 Z M 188.640625 163.578125 L 182.875 169.851562 L 202.457031 180.003906 C 202.9375 179.429688 203.609375 179.023438 204.394531 178.910156 L 207.015625 152.03125 C 206.539062 151.878906 206.101562 151.628906 205.757812 151.277344 L 195.121094 158.128906 C 195.371094 158.679688 195.515625 159.289062 195.515625 159.933594 C 195.515625 162.367188 193.542969 164.339844 191.113281 164.339844 C 190.199219 164.335938 189.351562 164.054688 188.640625 163.578125 Z M 166.796875 155.625 C 167.726562 156.59375 168.320312 157.867188 168.472656 159.277344 L 186.78125 159.277344 C 186.964844 158.050781 187.640625 156.984375 188.621094 156.308594 L 181.304688 141.328125 C 181.066406 141.386719 180.8125 141.425781 180.554688 141.425781 C 180.023438 141.425781 179.535156 141.28125 179.097656 141.050781 Z M 163.292969 153.800781 C 164.214844 153.949219 165.070312 154.273438 165.804688 154.777344 L 178.089844 140.214844 C 177.6875 139.691406 177.429688 139.035156 177.429688 138.316406 C 177.429688 137.847656 177.542969 137.402344 177.726562 137.003906 L 168.652344 130.117188 C 167.585938 131.253906 166.109375 131.976562 164.445312 132.0625 Z M 129.90625 165.429688 C 130.15625 165.828125 130.347656 166.25 130.507812 166.703125 L 156.167969 160.695312 C 156.132812 160.445312 156.085938 160.191406 156.085938 159.925781 C 156.085938 156.597656 158.703125 153.902344 161.988281 153.730469 L 163.15625 131.980469 C 162.179688 131.828125 161.289062 131.457031 160.527344 130.90625 Z M 127.101562 163.015625 C 127.851562 163.339844 128.527344 163.804688 129.089844 164.382812 L 159.550781 130.039062 C 159.160156 129.613281 158.835938 129.132812 158.578125 128.613281 C 143.820312 135.605469 132.652344 148.148438 127.101562 163.015625 Z M 130.410156 211.847656 L 124.917969 174.941406 C 124.824219 174.945312 124.746094 174.96875 124.652344 174.96875 C 124.425781 174.96875 124.214844 174.925781 124.003906 174.902344 C 123.507812 178.035156 123.230469 181.230469 123.230469 184.460938 C 123.230469 194.34375 125.574219 203.683594 129.714844 211.972656 C 129.933594 211.914062 130.171875 211.875 130.410156 211.847656 Z M 140.269531 187.714844 C 138.039062 186.765625 136.476562 184.550781 136.476562 181.972656 C 136.476562 178.535156 139.265625 175.742188 142.703125 175.742188 C 144.054688 175.742188 145.296875 176.1875 146.324219 176.921875 L 157.722656 164.101562 C 157.167969 163.488281 156.738281 162.765625 156.457031 161.96875 L 130.800781 167.972656 C 130.832031 168.226562 130.878906 168.476562 130.878906 168.742188 C 130.878906 171.640625 128.890625 174.058594 126.210938 174.753906 L 131.738281 211.894531 C 132.117188 211.96875 132.46875 212.105469 132.800781 212.265625 Z M 133.925781 213.042969 C 134.34375 213.4375 134.679688 213.921875 134.914062 214.460938 L 153.558594 209.496094 C 153.539062 209.335938 153.511719 209.175781 153.511719 209.011719 C 153.511719 207.730469 154.0625 206.589844 154.933594 205.789062 L 145.09375 187.726562 C 144.359375 188.03125 143.550781 188.203125 142.703125 188.203125 C 142.296875 188.203125 141.90625 188.15625 141.523438 188.085938 Z M 178.761719 244.226562 L 134.078125 219.398438 C 144.046875 233.894531 160.023438 243.9375 178.390625 245.886719 C 178.457031 245.316406 178.582031 244.757812 178.761719 244.226562 Z M 181.125 240.621094 L 170.644531 226.835938 C 170.015625 227.179688 169.308594 227.390625 168.539062 227.390625 C 166.109375 227.390625 164.136719 225.417969 164.136719 222.984375 C 164.136719 222.9375 164.148438 222.890625 164.148438 222.839844 L 135.066406 217.480469 C 134.980469 217.753906 134.871094 218.019531 134.742188 218.265625 L 179.269531 243.007812 C 179.746094 242.105469 180.371094 241.296875 181.125 240.621094 Z M 189 195.894531 C 188.867188 195.855469 188.726562 195.820312 188.601562 195.765625 L 171.585938 219.820312 C 172.421875 220.625 172.945312 221.746094 172.945312 222.992188 C 172.945312 224.183594 172.46875 225.265625 171.691406 226.058594 L 182.152344 239.820312 C 183.421875 239 184.925781 238.515625 186.542969 238.480469 Z M 189.019531 238.820312 L 197.5625 212.921875 C 196.132812 212.191406 195.140625 210.722656 195.140625 209.003906 C 195.140625 207.640625 195.769531 206.4375 196.742188 205.628906 L 190.835938 195.828125 C 190.664062 195.886719 190.488281 195.933594 190.304688 195.960938 L 187.847656 238.566406 C 188.246094 238.628906 188.636719 238.714844 189.019531 238.820312 Z M 223.957031 206.492188 C 223.238281 205.949219 222.695312 205.191406 222.410156 204.3125 L 203.625 207.375 C 203.828125 207.882812 203.949219 208.433594 203.949219 209.011719 C 203.949219 211.445312 201.976562 213.417969 199.542969 213.417969 C 199.292969 213.417969 199.046875 213.386719 198.800781 213.347656 L 190.25 239.261719 C 191.058594 239.636719 191.789062 240.132812 192.429688 240.726562 Z M 227.9375 228.730469 C 227.898438 228.683594 227.859375 228.632812 227.820312 228.585938 L 194.597656 243.996094 C 194.761719 244.453125 194.902344 244.925781 194.992188 245.414062 C 207.691406 243.328125 219.089844 237.339844 227.9375 228.730469 Z M 230.304688 218.839844 L 227.105469 207.320312 C 226.925781 207.339844 226.753906 207.375 226.574219 207.375 C 226.070312 207.375 225.59375 207.273438 225.144531 207.117188 L 193.296875 241.695312 C 193.578125 242.046875 193.816406 242.414062 194.035156 242.808594 L 227.078125 227.484375 C 226.628906 226.621094 226.347656 225.660156 226.347656 224.621094 C 226.363281 221.988281 228 219.757812 230.304688 218.839844 Z M 246.492188 188.839844 C 245.78125 188.640625 245.167969 188.210938 244.761719 187.613281 L 230.257812 200.558594 C 230.707031 201.25 230.980469 202.078125 230.980469 202.964844 C 230.980469 204.753906 229.90625 206.292969 228.371094 206.984375 L 231.5625 218.496094 C 231.894531 218.445312 232.230469 218.390625 232.582031 218.390625 C 233.789062 218.390625 234.902344 218.75 235.855469 219.339844 C 241.894531 210.542969 245.703125 200.101562 246.492188 188.839844 Z M 253.3125 159.925781 C 251.589844 159.925781 250.199219 161.320312 250.199219 163.042969 C 250.199219 164.765625 251.589844 166.15625 253.3125 166.15625 C 255.035156 166.15625 256.425781 164.765625 256.425781 163.042969 C 256.425781 161.324219 255.027344 159.925781 253.3125 159.925781 Z M 197.648438 125.824219 C 200.167969 125.824219 200.171875 121.90625 197.648438 121.90625 C 195.132812 121.90625 195.132812 125.824219 197.648438 125.824219 Z M 230.304688 148.453125 C 232.820312 148.453125 232.828125 144.535156 230.304688 144.535156 C 227.785156 144.535156 227.78125 148.453125 230.304688 148.453125 Z M 220.28125 135.203125 C 222.800781 135.203125 222.804688 131.285156 220.28125 131.285156 C 217.765625 131.285156 217.757812 135.203125 220.28125 135.203125 Z M 220.28125 135.203125 " clip-rule="nonzero"/></clipPath><linearGradient x1="1820.417478" gradientTransform="matrix(0.0662347, 0, 0, 0.066285, 118.426722, 119.625727)" y1="2211.287539" x2="319.071484" gradientUnits="userSpaceOnUse" y2="-198.765881" id="c9737dc429"><stop stop-opacity="1" stop-color="rgb(7.516479%, 41.668701%, 71.578979%)" offset="0"/><stop stop-opacity="1" stop-color="rgb(7.397461%, 41.7099%, 71.612549%)" offset="0.03125"/><stop stop-opacity="1" stop-color="rgb(7.16095%, 41.793823%, 71.679688%)" offset="0.0625"/><stop stop-opacity="1" stop-color="rgb(6.924438%, 41.876221%, 71.7453%)" offset="0.09375"/><stop stop-opacity="1" stop-color="rgb(6.687927%, 41.958618%, 71.812439%)" offset="0.125"/><stop stop-opacity="1" stop-color="rgb(6.44989%, 42.042542%, 71.879578%)" offset="0.15625"/><stop stop-opacity="1" stop-color="rgb(6.213379%, 42.124939%, 71.946716%)" offset="0.1875"/><stop stop-opacity="1" stop-color="rgb(5.976868%, 42.207336%, 72.012329%)" offset="0.21875"/><stop stop-opacity="1" stop-color="rgb(5.740356%, 42.289734%, 72.079468%)" offset="0.25"/><stop stop-opacity="1" stop-color="rgb(5.503845%, 42.373657%, 72.146606%)" offset="0.28125"/><stop stop-opacity="1" stop-color="rgb(5.267334%, 42.456055%, 72.213745%)" offset="0.3125"/><stop stop-opacity="1" stop-color="rgb(5.030823%, 42.538452%, 72.279358%)" offset="0.34375"/><stop stop-opacity="1" stop-color="rgb(4.794312%, 42.62085%, 72.346497%)" offset="0.375"/><stop stop-opacity="1" stop-color="rgb(4.556274%, 42.704773%, 72.413635%)" offset="0.387981"/><stop stop-opacity="1" stop-color="rgb(4.438782%, 42.745972%, 72.447205%)" offset="0.40625"/><stop stop-opacity="1" stop-color="rgb(4.319763%, 42.78717%, 72.480774%)" offset="0.4375"/><stop stop-opacity="1" stop-color="rgb(4.083252%, 42.869568%, 72.546387%)" offset="0.46875"/><stop stop-opacity="1" stop-color="rgb(3.846741%, 42.953491%, 72.613525%)" offset="0.5"/><stop stop-opacity="1" stop-color="rgb(3.610229%, 43.035889%, 72.680664%)" offset="0.53125"/><stop stop-opacity="1" stop-color="rgb(3.373718%, 43.118286%, 72.747803%)" offset="0.5625"/><stop stop-opacity="1" stop-color="rgb(3.137207%, 43.200684%, 72.813416%)" offset="0.59375"/><stop stop-opacity="1" stop-color="rgb(2.900696%, 43.284607%, 72.880554%)" offset="0.612019"/><stop stop-opacity="1" stop-color="rgb(2.783203%, 43.325806%, 72.914124%)" offset="0.625"/><stop stop-opacity="1" stop-color="rgb(2.664185%, 43.367004%, 72.947693%)" offset="0.65625"/><stop stop-opacity="1" stop-color="rgb(2.426147%, 43.449402%, 73.014832%)" offset="0.6875"/><stop stop-opacity="1" stop-color="rgb(2.189636%, 43.531799%, 73.080444%)" offset="0.71875"/><stop stop-opacity="1" stop-color="rgb(1.953125%, 43.615723%, 73.147583%)" offset="0.75"/><stop stop-opacity="1" stop-color="rgb(1.716614%, 43.69812%, 73.214722%)" offset="0.78125"/><stop stop-opacity="1" stop-color="rgb(1.480103%, 43.780518%, 73.28186%)" offset="0.8125"/><stop stop-opacity="1" stop-color="rgb(1.243591%, 43.862915%, 73.347473%)" offset="0.84375"/><stop stop-opacity="1" stop-color="rgb(1.00708%, 43.946838%, 73.414612%)" offset="0.875"/><stop stop-opacity="1" stop-color="rgb(0.770569%, 44.029236%, 73.48175%)" offset="0.90625"/><stop stop-opacity="1" stop-color="rgb(0.532532%, 44.111633%, 73.548889%)" offset="0.9375"/><stop stop-opacity="1" stop-color="rgb(0.296021%, 44.195557%, 73.614502%)" offset="0.96875"/><stop stop-opacity="1" stop-color="rgb(0.088501%, 44.267273%, 73.674011%)" offset="1"/></linearGradient></defs><g clip-path="url(#ce52755c02)"><g clip-path="url(#ce0d098479)"><path fill="url(#c9737dc429)" d="M 118.425781 119.625 L 118.425781 255.335938 L 256.425781 255.335938 L 256.425781 119.625 Z M 118.425781 119.625 " fill-rule="nonzero"/></g></g><g fill="#ffffff" fill-opacity="1"><g transform="translate(154.124994, 370.799976)"><g><path d="M 10.109375 -5.53125 L 13.125 0 L 9.359375 0 L 6.90625 -4.796875 L 5 -4.796875 L 3.890625 0 L 0.515625 0 L 3.546875 -13.09375 L 8.65625 -13.09375 C 12 -13.09375 13.671875 -11.992188 13.671875 -9.796875 C 13.671875 -7.773438 12.484375 -6.351562 10.109375 -5.53125 Z M 6.359375 -10.671875 L 5.546875 -7.15625 L 7.203125 -7.15625 C 8.109375 -7.15625 8.804688 -7.335938 9.296875 -7.703125 C 9.785156 -8.066406 10.03125 -8.578125 10.03125 -9.234375 C 10.03125 -10.191406 9.363281 -10.671875 8.03125 -10.671875 Z M 6.359375 -10.671875 "/></g></g><g transform="translate(168.205072, 370.799976)"><g><path d="M 13.21875 -10.5625 L 9.140625 -10.5625 L 6.703125 0 L 3.3125 0 L 5.75 -10.5625 L 1.671875 -10.5625 L 2.25 -13.09375 L 13.796875 -13.09375 Z M 13.21875 -10.5625 "/></g></g><g transform="translate(180.474602, 370.799976)"><g><path d="M 13.03125 -13.09375 L 12.453125 -10.609375 L 6.34375 -10.609375 L 5.796875 -8.265625 L 11.46875 -8.265625 L 10.890625 -5.78125 L 5.21875 -5.78125 L 4.453125 -2.484375 L 10.5625 -2.484375 L 10 0 L 0.515625 0 L 3.546875 -13.09375 Z M 13.03125 -13.09375 "/></g></g><g transform="translate(192.7705, 370.799976)"><g><path d="M 13.859375 -12.25 L 13.078125 -9.078125 L 12.6875 -9.078125 C 11.625 -10.234375 10.425781 -10.8125 9.09375 -10.8125 C 7.789062 -10.8125 6.710938 -10.289062 5.859375 -9.25 C 5.015625 -8.207031 4.59375 -6.867188 4.59375 -5.234375 C 4.59375 -3.253906 5.507812 -2.265625 7.34375 -2.265625 C 8.757812 -2.265625 10.191406 -2.84375 11.640625 -4 L 11.984375 -4 L 11.21875 -0.875 C 11.03125 -0.789062 10.722656 -0.660156 10.296875 -0.484375 C 9.160156 0.00390625 7.921875 0.25 6.578125 0.25 C 4.796875 0.25 3.425781 -0.179688 2.46875 -1.046875 C 1.507812 -1.921875 1.03125 -3.171875 1.03125 -4.796875 C 1.03125 -7.296875 1.820312 -9.34375 3.40625 -10.9375 C 4.988281 -12.539062 6.9375 -13.34375 9.25 -13.34375 C 11.050781 -13.34375 12.585938 -12.976562 13.859375 -12.25 Z M 13.859375 -12.25 "/></g></g><g transform="translate(205.795889, 370.799976)"><g><path d="M 15.296875 -13.09375 L 12.265625 0 L 8.875 0 L 10.21875 -5.78125 L 5.25 -5.78125 L 3.90625 0 L 0.515625 0 L 3.546875 -13.09375 L 6.9375 -13.09375 L 5.8125 -8.265625 L 10.78125 -8.265625 L 11.90625 -13.09375 Z M 15.296875 -13.09375 "/></g></g></g></svg>