<svg xmlns="http://www.w3.org/2000/svg" xmlns:xlink="http://www.w3.org/1999/xlink" width="500" zoomAndPan="magnify" viewBox="0 0 375 374.999991" height="500" preserveAspectRatio="xMidYMid meet" version="1.0"><defs><g/></defs><g fill="#ffffff" fill-opacity="1"><g transform="translate(2.001513, 216.992202)"><g><path d="M 52.234375 0 L 36.96875 -26.84375 L 26.0625 -26.84375 L 26.0625 0 L 8.984375 0 L 8.984375 -78.640625 L 40.78125 -78.640625 C 46.019531 -78.640625 50.695312 -77.515625 54.8125 -75.265625 C 58.9375 -73.023438 62.195312 -69.957031 64.59375 -66.0625 C 66.988281 -62.164062 68.1875 -57.671875 68.1875 -52.578125 C 68.1875 -47.484375 66.894531 -42.929688 64.3125 -38.921875 C 61.726562 -34.921875 58.265625 -31.867188 53.921875 -29.765625 L 71.34375 0 Z M 26.0625 -62.90625 L 26.0625 -42.578125 L 39.65625 -42.578125 C 43.175781 -42.578125 45.945312 -43.53125 47.96875 -45.4375 C 49.988281 -47.351562 51 -49.769531 51 -52.6875 C 51 -55.6875 49.988281 -58.140625 47.96875 -60.046875 C 45.945312 -61.953125 43.175781 -62.90625 39.65625 -62.90625 Z M 26.0625 -62.90625 "/></g></g></g><g fill="#ffffff" fill-opacity="1"><g transform="translate(76.258345, 216.992202)"><g><path d="M 63.25 -78.640625 L 63.25 -62.796875 L 41.34375 -62.796875 L 41.34375 0 L 24.265625 0 L 24.265625 -62.796875 L 2.46875 -62.796875 L 2.46875 -78.640625 Z M 63.25 -78.640625 "/></g></g></g><g fill="#ffffff" fill-opacity="1"><g transform="translate(141.86498, 216.992202)"><g><path d="M 26.0625 -15.84375 L 57.40625 -15.84375 L 57.40625 0 L 8.984375 0 L 8.984375 -78.640625 L 56.171875 -78.640625 L 56.171875 -62.90625 L 26.0625 -62.90625 L 26.0625 -47.40625 L 53.25 -47.40625 L 53.25 -32.015625 L 26.0625 -32.015625 Z M 26.0625 -15.84375 "/></g></g></g><g fill="#ffffff" fill-opacity="1"><g transform="translate(204.663133, 216.992202)"><g><path d="M 45.046875 1.6875 C 39.285156 1.6875 33.929688 0.65625 28.984375 -1.40625 C 24.035156 -3.46875 19.726562 -6.347656 16.0625 -10.046875 C 12.394531 -13.753906 9.550781 -18.097656 7.53125 -23.078125 C 5.507812 -28.066406 4.5 -33.441406 4.5 -39.203125 C 4.5 -45.046875 5.507812 -50.476562 7.53125 -55.5 C 9.550781 -60.519531 12.394531 -64.878906 16.0625 -68.578125 C 19.726562 -72.285156 24.035156 -75.171875 28.984375 -77.234375 C 33.929688 -79.296875 39.285156 -80.328125 45.046875 -80.328125 C 51.410156 -80.328125 57.25 -79.015625 62.5625 -76.390625 C 67.882812 -73.773438 72.34375 -70.109375 75.9375 -65.390625 C 79.539062 -60.671875 81.941406 -55.203125 83.140625 -48.984375 L 66.0625 -48.984375 C 64.488281 -53.628906 61.828125 -57.316406 58.078125 -60.046875 C 54.335938 -62.773438 49.992188 -64.140625 45.046875 -64.140625 C 40.628906 -64.140625 36.660156 -63.035156 33.140625 -60.828125 C 29.617188 -58.617188 26.828125 -55.640625 24.765625 -51.890625 C 22.710938 -48.148438 21.6875 -43.921875 21.6875 -39.203125 C 21.6875 -34.484375 22.710938 -30.269531 24.765625 -26.5625 C 26.828125 -22.863281 29.617188 -19.925781 33.140625 -17.75 C 36.660156 -15.582031 40.628906 -14.5 45.046875 -14.5 C 50.210938 -14.5 54.664062 -15.957031 58.40625 -18.875 C 62.15625 -21.789062 64.742188 -25.757812 66.171875 -30.78125 L 83.359375 -30.78125 C 82.160156 -24.269531 79.78125 -18.578125 76.21875 -13.703125 C 72.664062 -8.835938 68.210938 -5.054688 62.859375 -2.359375 C 57.503906 0.335938 51.566406 1.6875 45.046875 1.6875 Z M 45.046875 1.6875 "/></g></g></g><g fill="#ffffff" fill-opacity="1"><g transform="translate(291.277391, 216.992202)"><g><path d="M 55.609375 -78.640625 L 72.578125 -78.640625 L 72.578125 0 L 55.609375 0 L 55.609375 -32.46875 L 26.0625 -32.46875 L 26.0625 0 L 8.984375 0 L 8.984375 -78.640625 L 26.0625 -78.640625 L 26.0625 -48.3125 L 55.609375 -48.3125 Z M 55.609375 -78.640625 "/></g></g></g></svg>