<svg xmlns="http://www.w3.org/2000/svg" xmlns:xlink="http://www.w3.org/1999/xlink" width="500" zoomAndPan="magnify" viewBox="0 0 375 374.999991" height="500" preserveAspectRatio="xMidYMid meet" version="1.0"><defs><g/><clipPath id="4201e42216"><path d="M 62.265625 13.789062 L 312.46875 13.789062 L 312.46875 259.917969 L 62.265625 259.917969 Z M 62.265625 13.789062 " clip-rule="nonzero"/></clipPath><clipPath id="d13d8e8006"><path d="M 209.335938 42.066406 C 212.460938 42.066406 214.980469 44.589844 214.980469 47.714844 C 214.980469 50.839844 212.460938 53.363281 209.335938 53.363281 C 206.214844 53.363281 203.691406 50.839844 203.691406 47.714844 C 203.691406 44.589844 206.214844 42.066406 209.335938 42.066406 Z M 301.613281 133.910156 C 301.613281 136.734375 299.535156 139.054688 296.824219 139.472656 C 295.359375 160.375 288.273438 179.746094 277.042969 196.078125 C 279.179688 198.132812 280.527344 201.007812 280.527344 204.214844 C 280.527344 210.453125 275.472656 215.511719 269.238281 215.511719 C 266.726562 215.511719 264.421875 214.660156 262.550781 213.277344 C 246.121094 229.296875 224.925781 240.425781 201.304688 244.273438 C 201.304688 244.378906 201.339844 244.488281 201.339844 244.597656 C 201.339844 253.046875 194.496094 259.882812 186.0625 259.882812 C 177.8125 259.882812 171.136719 253.320312 170.835938 245.148438 C 136.730469 241.554688 107.058594 222.902344 88.585938 195.960938 C 87.457031 196.570312 86.199219 196.945312 84.828125 196.945312 C 80.421875 196.945312 76.84375 193.363281 76.84375 188.953125 C 76.84375 186.128906 78.320312 183.652344 80.53125 182.234375 C 72.890625 166.910156 68.582031 149.652344 68.582031 131.398438 C 68.582031 125.378906 69.109375 119.429688 70.046875 113.574219 C 65.542969 112.085938 62.265625 107.878906 62.265625 102.878906 C 62.265625 96.640625 67.320312 91.582031 73.550781 91.582031 C 74.296875 91.582031 75.03125 91.667969 75.738281 91.796875 C 85.992188 64.21875 106.683594 40.949219 134.054688 27.984375 C 134.113281 27.957031 134.171875 27.933594 134.246094 27.898438 C 134.015625 27.007812 133.859375 26.082031 133.859375 25.121094 C 133.859375 18.886719 138.917969 13.824219 145.148438 13.824219 C 149.6875 13.824219 153.59375 16.53125 155.371094 20.398438 C 155.429688 20.386719 155.488281 20.363281 155.539062 20.351562 L 155.945312 22.023438 C 156.234375 23.007812 156.425781 24.027344 156.425781 25.109375 C 156.425781 27.25 155.800781 29.234375 154.769531 30.925781 L 171.234375 43.425781 C 172.21875 42.574219 173.492188 42.042969 174.894531 42.042969 C 178.019531 42.042969 180.539062 44.566406 180.539062 47.691406 C 180.539062 49.496094 179.6875 51.082031 178.367188 52.113281 L 191.660156 79.324219 C 192.417969 79.082031 193.210938 78.914062 194.050781 78.914062 C 196.441406 78.914062 198.554688 79.984375 200.019531 81.644531 L 219.339844 69.203125 C 219.113281 68.578125 218.96875 67.917969 218.96875 67.222656 C 218.96875 64.097656 221.492188 61.574219 224.613281 61.574219 C 227.734375 61.574219 230.257812 64.097656 230.257812 67.222656 C 230.257812 68.410156 229.886719 69.503906 229.261719 70.417969 L 253.792969 96.339844 C 255.089844 95.441406 256.652344 94.898438 258.359375 94.898438 C 262.765625 94.898438 266.34375 98.480469 266.34375 102.890625 C 266.34375 106.894531 263.390625 110.1875 259.546875 110.761719 L 259.546875 157.09375 C 261.023438 157.308594 262.34375 157.933594 263.4375 158.847656 L 290.421875 134.761719 C 290.386719 134.488281 290.335938 134.210938 290.335938 133.921875 C 290.335938 130.796875 292.859375 128.273438 295.980469 128.273438 C 299.09375 128.261719 301.613281 130.785156 301.613281 133.910156 Z M 252.425781 108.179688 L 224.566406 126.457031 C 224.578125 126.589844 224.601562 126.722656 224.601562 126.867188 C 224.601562 127.25 224.566406 127.625 224.492188 127.984375 L 253.746094 158.4375 C 254.742188 157.730469 255.90625 157.261719 257.167969 157.082031 L 257.167969 110.738281 C 255.285156 110.460938 253.636719 109.539062 252.425781 108.179688 Z M 250.371094 164.941406 C 250.371094 163.101562 251.007812 161.441406 252.054688 160.085938 L 223.4375 130.28125 C 222.980469 130.871094 222.425781 131.363281 221.777344 131.734375 L 212.4375 168.523438 C 213.601562 169.015625 214.597656 169.785156 215.402344 170.734375 L 250.394531 165.035156 C 250.382812 165 250.371094 164.976562 250.371094 164.941406 Z M 151.25 93.109375 C 149.234375 96.171875 145.773438 98.191406 141.835938 98.191406 C 139.375 98.191406 137.128906 97.386719 135.265625 96.054688 L 114.585938 119.296875 C 116.386719 121.277344 117.515625 123.886719 117.542969 126.769531 L 138.113281 128.753906 C 139.363281 121.578125 145.59375 116.097656 153.125 116.097656 C 156.691406 116.097656 159.921875 117.375 162.527344 119.417969 L 175.28125 105.546875 Z M 176.9375 103.757812 L 187.855469 91.882812 C 186.988281 90.800781 186.402344 89.515625 186.183594 88.085938 L 153.003906 88.085938 C 152.894531 89.105469 152.691406 90.09375 152.332031 91.003906 Z M 186.078125 146.683594 C 186.078125 146.277344 186.125 145.867188 186.207031 145.484375 L 167.34375 136.902344 C 165.132812 142.621094 159.621094 146.683594 153.125 146.683594 C 151.453125 146.683594 149.871094 146.347656 148.367188 145.855469 L 138.507812 169.433594 C 139.648438 170.253906 140.5625 171.359375 141.140625 172.65625 L 186.101562 146.9375 C 186.089844 146.839844 186.078125 146.769531 186.078125 146.683594 Z M 112.675781 136.15625 L 130.425781 168.714844 C 131.472656 168.210938 132.625 167.910156 133.859375 167.910156 C 134.75 167.910156 135.589844 168.089844 136.394531 168.355469 L 146.183594 144.941406 C 141.257812 142.40625 137.847656 137.324219 137.847656 131.398438 C 137.847656 131.300781 137.871094 131.207031 137.871094 131.109375 L 117.324219 129.125 C 116.738281 132.035156 115.03125 134.523438 112.675781 136.15625 Z M 126.535156 179.0625 L 92.730469 188.0625 C 92.765625 188.351562 92.816406 188.628906 92.816406 188.929688 L 145.605469 198.652344 C 146.6875 195.515625 149.628906 193.253906 153.125 193.253906 C 154.421875 193.253906 155.621094 193.589844 156.703125 194.132812 L 187.578125 150.496094 C 187.242188 150.132812 186.964844 149.726562 186.738281 149.28125 L 141.75 175.023438 C 141.789062 175.3125 141.835938 175.601562 141.835938 175.890625 C 141.835938 180.300781 138.257812 183.882812 133.847656 183.882812 C 130.582031 183.882812 127.761719 181.898438 126.535156 179.0625 Z M 191.71875 141.035156 C 193.222656 141.035156 194.578125 141.636719 195.585938 142.597656 L 214.175781 129.835938 C 213.636719 128.96875 213.3125 127.960938 213.3125 126.867188 C 213.3125 126.351562 213.410156 125.871094 213.527344 125.390625 L 177.453125 106.6875 L 164.28125 121.015625 C 166.8125 123.742188 168.398438 127.371094 168.398438 131.398438 C 168.398438 132.503906 168.265625 133.585938 168.050781 134.617188 L 187.203125 143.332031 C 188.226562 141.949219 189.859375 141.035156 191.71875 141.035156 Z M 195.574219 150.785156 L 206.261719 168.511719 C 207.210938 168.113281 208.246094 167.898438 209.324219 167.898438 C 209.601562 167.898438 209.855469 167.945312 210.117188 167.980469 L 219.136719 132.492188 C 219.078125 132.492188 219.027344 132.503906 218.96875 132.503906 C 217.816406 132.503906 216.746094 132.15625 215.847656 131.554688 L 196.933594 144.523438 C 197.207031 145.183594 197.351562 145.902344 197.351562 146.660156 C 197.351562 148.308594 196.667969 149.761719 195.574219 150.785156 Z M 220.492188 121.460938 C 221.933594 121.867188 223.125 122.816406 223.84375 124.089844 L 251.105469 106.195312 C 250.636719 105.175781 250.359375 104.058594 250.359375 102.867188 C 250.359375 101.015625 251.019531 99.320312 252.078125 97.976562 L 227.519531 72.027344 C 226.835938 72.4375 226.066406 72.703125 225.238281 72.796875 Z M 189.570312 93.515625 L 179.109375 104.886719 L 214.621094 123.296875 C 215.484375 122.253906 216.710938 121.519531 218.128906 121.316406 L 222.882812 72.582031 C 222.019531 72.304688 221.226562 71.847656 220.601562 71.210938 L 201.316406 83.636719 C 201.773438 84.636719 202.035156 85.742188 202.035156 86.90625 C 202.035156 91.316406 198.457031 94.898438 194.050781 94.898438 C 192.394531 94.886719 190.855469 94.382812 189.570312 93.515625 Z M 149.964844 79.09375 C 151.648438 80.851562 152.726562 83.15625 153.003906 85.71875 L 186.195312 85.71875 C 186.53125 83.492188 187.757812 81.558594 189.535156 80.332031 L 176.265625 53.171875 C 175.832031 53.28125 175.375 53.351562 174.90625 53.351562 C 173.945312 53.351562 173.058594 53.089844 172.265625 52.667969 Z M 143.613281 75.789062 C 145.28125 76.054688 146.832031 76.644531 148.164062 77.558594 L 170.441406 51.152344 C 169.707031 50.203125 169.238281 49.015625 169.238281 47.714844 C 169.238281 46.863281 169.445312 46.058594 169.78125 45.335938 L 153.328125 32.851562 C 151.394531 34.90625 148.714844 36.214844 145.703125 36.371094 Z M 83.074219 96.871094 C 83.53125 97.589844 83.878906 98.359375 84.167969 99.175781 L 130.691406 88.289062 C 130.632812 87.832031 130.546875 87.375 130.546875 86.894531 C 130.546875 80.863281 135.289062 75.972656 141.246094 75.660156 L 143.359375 36.226562 C 141.59375 35.949219 139.972656 35.277344 138.59375 34.28125 Z M 77.996094 92.496094 C 79.351562 93.085938 80.578125 93.925781 81.597656 94.972656 L 136.828125 32.707031 C 136.117188 31.9375 135.53125 31.058594 135.0625 30.121094 C 108.304688 42.800781 88.058594 65.539062 77.996094 92.496094 Z M 83.988281 181.03125 L 74.03125 114.117188 C 73.863281 114.128906 73.71875 114.164062 73.550781 114.164062 C 73.144531 114.164062 72.761719 114.09375 72.375 114.042969 C 71.476562 119.730469 70.96875 125.519531 70.96875 131.375 C 70.96875 149.292969 75.222656 166.226562 82.726562 181.261719 C 83.125 181.152344 83.554688 181.082031 83.988281 181.03125 Z M 101.871094 137.273438 C 97.824219 135.554688 94.988281 131.542969 94.988281 126.867188 C 94.988281 120.628906 100.042969 115.570312 106.277344 115.570312 C 108.726562 115.570312 110.984375 116.375 112.84375 117.710938 L 133.511719 94.464844 C 132.503906 93.347656 131.722656 92.039062 131.21875 90.597656 L 84.695312 101.484375 C 84.757812 101.941406 84.839844 102.398438 84.839844 102.878906 C 84.839844 108.132812 81.238281 112.519531 76.375 113.78125 L 86.402344 181.117188 C 87.085938 181.25 87.722656 181.5 88.324219 181.789062 Z M 90.363281 183.195312 C 91.121094 183.917969 91.734375 184.792969 92.152344 185.769531 L 125.960938 176.765625 C 125.921875 176.476562 125.875 176.191406 125.875 175.890625 C 125.875 173.570312 126.871094 171.503906 128.457031 170.046875 L 110.613281 137.300781 C 109.277344 137.851562 107.8125 138.164062 106.277344 138.164062 C 105.542969 138.164062 104.835938 138.082031 104.140625 137.949219 Z M 171.652344 239.742188 L 90.640625 194.722656 C 108.714844 221.003906 137.679688 239.210938 170.980469 242.746094 C 171.101562 241.710938 171.328125 240.703125 171.652344 239.742188 Z M 175.941406 233.203125 L 156.941406 208.207031 C 155.800781 208.832031 154.515625 209.214844 153.125 209.214844 C 148.714844 209.214844 145.136719 205.632812 145.136719 201.222656 C 145.136719 201.140625 145.160156 201.054688 145.160156 200.957031 L 92.429688 191.25 C 92.273438 191.742188 92.082031 192.222656 91.84375 192.667969 L 172.578125 237.53125 C 173.441406 235.894531 174.570312 234.429688 175.941406 233.203125 Z M 190.21875 152.105469 C 189.980469 152.03125 189.726562 151.972656 189.5 151.875 L 158.648438 195.492188 C 160.160156 196.945312 161.109375 198.976562 161.109375 201.234375 C 161.109375 203.398438 160.246094 205.355469 158.839844 206.800781 L 177.800781 231.75 C 180.109375 230.257812 182.832031 229.382812 185.765625 229.320312 Z M 190.253906 229.933594 L 205.746094 182.980469 C 203.152344 181.65625 201.351562 178.988281 201.351562 175.878906 C 201.351562 173.402344 202.492188 171.226562 204.257812 169.761719 L 193.546875 151.984375 C 193.234375 152.09375 192.921875 152.175781 192.585938 152.226562 L 188.128906 229.476562 C 188.851562 229.585938 189.558594 229.742188 190.253906 229.933594 Z M 253.601562 171.320312 C 252.292969 170.335938 251.308594 168.964844 250.792969 167.367188 L 216.734375 172.921875 C 217.105469 173.847656 217.324219 174.84375 217.324219 175.890625 C 217.324219 180.300781 213.746094 183.882812 209.335938 183.882812 C 208.882812 183.882812 208.4375 183.820312 207.992188 183.75 L 192.488281 230.738281 C 193.953125 231.414062 195.273438 232.3125 196.441406 233.394531 Z M 260.820312 211.644531 C 260.746094 211.558594 260.675781 211.460938 260.605469 211.378906 L 200.367188 239.320312 C 200.667969 240.148438 200.917969 241.003906 201.085938 241.890625 C 224.109375 238.105469 244.777344 227.253906 260.820312 211.644531 Z M 265.105469 193.710938 L 259.308594 172.824219 C 258.984375 172.859375 258.671875 172.921875 258.347656 172.921875 C 257.433594 172.921875 256.570312 172.742188 255.753906 172.453125 L 198.011719 235.148438 C 198.515625 235.785156 198.949219 236.449219 199.347656 237.167969 L 259.257812 209.382812 C 258.441406 207.820312 257.9375 206.078125 257.9375 204.191406 C 257.960938 199.421875 260.929688 195.371094 265.105469 193.710938 Z M 294.457031 139.316406 C 293.171875 138.957031 292.054688 138.175781 291.324219 137.09375 L 265.023438 160.566406 C 265.839844 161.816406 266.332031 163.316406 266.332031 164.929688 C 266.332031 168.171875 264.386719 170.960938 261.601562 172.210938 L 267.390625 193.085938 C 267.988281 192.992188 268.601562 192.894531 269.238281 192.894531 C 271.421875 192.894531 273.441406 193.542969 275.171875 194.613281 C 286.121094 178.664062 293.027344 159.738281 294.457031 139.316406 Z M 306.824219 86.894531 C 303.703125 86.894531 301.183594 89.417969 301.183594 92.542969 C 301.183594 95.667969 303.703125 98.191406 306.824219 98.191406 C 309.949219 98.191406 312.46875 95.667969 312.46875 92.542969 C 312.46875 89.429688 309.9375 86.894531 306.824219 86.894531 Z M 205.902344 25.0625 C 210.464844 25.0625 210.476562 17.960938 205.902344 17.960938 C 201.339844 17.960938 201.339844 25.0625 205.902344 25.0625 Z M 265.105469 66.09375 C 269.671875 66.09375 269.683594 58.988281 265.105469 58.988281 C 260.542969 58.988281 260.53125 66.09375 265.105469 66.09375 Z M 246.9375 42.066406 C 251.5 42.066406 251.511719 34.964844 246.9375 34.964844 C 242.375 34.964844 242.363281 42.066406 246.9375 42.066406 Z M 246.9375 42.066406 " clip-rule="nonzero"/></clipPath><linearGradient x1="1820.417369" gradientTransform="matrix(0.120089, 0, 0, 0.120181, 62.264007, 13.82541)" y1="2211.287365" x2="319.071377" gradientUnits="userSpaceOnUse" y2="-198.766054" id="5aa4187eae"><stop stop-opacity="1" stop-color="rgb(7.516479%, 41.668701%, 71.578979%)" offset="0"/><stop stop-opacity="1" stop-color="rgb(7.397461%, 41.7099%, 71.612549%)" offset="0.03125"/><stop stop-opacity="1" stop-color="rgb(7.16095%, 41.793823%, 71.679688%)" offset="0.0625"/><stop stop-opacity="1" stop-color="rgb(6.924438%, 41.876221%, 71.7453%)" offset="0.09375"/><stop stop-opacity="1" stop-color="rgb(6.687927%, 41.958618%, 71.812439%)" offset="0.125"/><stop stop-opacity="1" stop-color="rgb(6.44989%, 42.042542%, 71.879578%)" offset="0.15625"/><stop stop-opacity="1" stop-color="rgb(6.213379%, 42.124939%, 71.946716%)" offset="0.1875"/><stop stop-opacity="1" stop-color="rgb(5.976868%, 42.207336%, 72.012329%)" offset="0.21875"/><stop stop-opacity="1" stop-color="rgb(5.740356%, 42.289734%, 72.079468%)" offset="0.25"/><stop stop-opacity="1" stop-color="rgb(5.503845%, 42.373657%, 72.146606%)" offset="0.28125"/><stop stop-opacity="1" stop-color="rgb(5.267334%, 42.456055%, 72.213745%)" offset="0.3125"/><stop stop-opacity="1" stop-color="rgb(5.030823%, 42.538452%, 72.279358%)" offset="0.34375"/><stop stop-opacity="1" stop-color="rgb(4.794312%, 42.62085%, 72.346497%)" offset="0.375"/><stop stop-opacity="1" stop-color="rgb(4.556274%, 42.704773%, 72.413635%)" offset="0.387981"/><stop stop-opacity="1" stop-color="rgb(4.438782%, 42.745972%, 72.447205%)" offset="0.40625"/><stop stop-opacity="1" stop-color="rgb(4.319763%, 42.78717%, 72.480774%)" offset="0.4375"/><stop stop-opacity="1" stop-color="rgb(4.083252%, 42.869568%, 72.546387%)" offset="0.46875"/><stop stop-opacity="1" stop-color="rgb(3.846741%, 42.953491%, 72.613525%)" offset="0.5"/><stop stop-opacity="1" stop-color="rgb(3.610229%, 43.035889%, 72.680664%)" offset="0.53125"/><stop stop-opacity="1" stop-color="rgb(3.373718%, 43.118286%, 72.747803%)" offset="0.5625"/><stop stop-opacity="1" stop-color="rgb(3.137207%, 43.200684%, 72.813416%)" offset="0.59375"/><stop stop-opacity="1" stop-color="rgb(2.900696%, 43.284607%, 72.880554%)" offset="0.612019"/><stop stop-opacity="1" stop-color="rgb(2.783203%, 43.325806%, 72.914124%)" offset="0.625"/><stop stop-opacity="1" stop-color="rgb(2.664185%, 43.367004%, 72.947693%)" offset="0.65625"/><stop stop-opacity="1" stop-color="rgb(2.426147%, 43.449402%, 73.014832%)" offset="0.6875"/><stop stop-opacity="1" stop-color="rgb(2.189636%, 43.531799%, 73.080444%)" offset="0.71875"/><stop stop-opacity="1" stop-color="rgb(1.953125%, 43.615723%, 73.147583%)" offset="0.75"/><stop stop-opacity="1" stop-color="rgb(1.716614%, 43.69812%, 73.214722%)" offset="0.78125"/><stop stop-opacity="1" stop-color="rgb(1.480103%, 43.780518%, 73.28186%)" offset="0.8125"/><stop stop-opacity="1" stop-color="rgb(1.243591%, 43.862915%, 73.347473%)" offset="0.84375"/><stop stop-opacity="1" stop-color="rgb(1.00708%, 43.946838%, 73.414612%)" offset="0.875"/><stop stop-opacity="1" stop-color="rgb(0.770569%, 44.029236%, 73.48175%)" offset="0.90625"/><stop stop-opacity="1" stop-color="rgb(0.532532%, 44.111633%, 73.548889%)" offset="0.9375"/><stop stop-opacity="1" stop-color="rgb(0.296021%, 44.195557%, 73.614502%)" offset="0.96875"/><stop stop-opacity="1" stop-color="rgb(0.088501%, 44.267273%, 73.674011%)" offset="1"/></linearGradient></defs><g clip-path="url(#4201e42216)"><g clip-path="url(#d13d8e8006)"><path fill="url(#5aa4187eae)" d="M 62.265625 13.824219 L 62.265625 259.882812 L 312.46875 259.882812 L 312.46875 13.824219 Z M 62.265625 13.824219 " fill-rule="nonzero"/></g></g><g fill="#ffffff" fill-opacity="1"><g transform="translate(67.759394, 337.185634)"><g><path d="M 33.71875 0 L 23.859375 -17.328125 L 16.828125 -17.328125 L 16.828125 0 L 5.796875 0 L 5.796875 -50.765625 L 26.328125 -50.765625 C 29.710938 -50.765625 32.734375 -50.035156 35.390625 -48.578125 C 38.046875 -47.128906 40.144531 -45.148438 41.6875 -42.640625 C 43.238281 -40.128906 44.015625 -37.226562 44.015625 -33.9375 C 44.015625 -30.644531 43.179688 -27.707031 41.515625 -25.125 C 39.847656 -22.539062 37.613281 -20.570312 34.8125 -19.21875 L 46.046875 0 Z M 16.828125 -40.609375 L 16.828125 -27.484375 L 25.59375 -27.484375 C 27.863281 -27.484375 29.648438 -28.097656 30.953125 -29.328125 C 32.265625 -30.566406 32.921875 -32.128906 32.921875 -34.015625 C 32.921875 -35.941406 32.265625 -37.519531 30.953125 -38.75 C 29.648438 -39.988281 27.863281 -40.609375 25.59375 -40.609375 Z M 16.828125 -40.609375 "/></g></g></g><g fill="#ffffff" fill-opacity="1"><g transform="translate(115.69271, 337.185634)"><g><path d="M 40.828125 -50.765625 L 40.828125 -40.53125 L 26.6875 -40.53125 L 26.6875 0 L 15.65625 0 L 15.65625 -40.53125 L 1.59375 -40.53125 L 1.59375 -50.765625 Z M 40.828125 -50.765625 "/></g></g></g><g fill="#ffffff" fill-opacity="1"><g transform="translate(158.042262, 337.185634)"><g><path d="M 16.828125 -10.21875 L 37.0625 -10.21875 L 37.0625 0 L 5.796875 0 L 5.796875 -50.765625 L 36.265625 -50.765625 L 36.265625 -40.609375 L 16.828125 -40.609375 L 16.828125 -30.609375 L 34.375 -30.609375 L 34.375 -20.671875 L 16.828125 -20.671875 Z M 16.828125 -10.21875 "/></g></g></g><g fill="#ffffff" fill-opacity="1"><g transform="translate(198.578919, 337.185634)"><g><path d="M 29.078125 1.09375 C 25.359375 1.09375 21.898438 0.425781 18.703125 -0.90625 C 15.515625 -2.238281 12.734375 -4.097656 10.359375 -6.484375 C 7.992188 -8.878906 6.160156 -11.679688 4.859375 -14.890625 C 3.554688 -18.109375 2.90625 -21.582031 2.90625 -25.3125 C 2.90625 -29.082031 3.554688 -32.585938 4.859375 -35.828125 C 6.160156 -39.066406 7.992188 -41.878906 10.359375 -44.265625 C 12.734375 -46.660156 15.515625 -48.519531 18.703125 -49.84375 C 21.898438 -51.175781 25.359375 -51.84375 29.078125 -51.84375 C 33.191406 -51.84375 36.960938 -50.992188 40.390625 -49.296875 C 43.828125 -47.609375 46.703125 -45.242188 49.015625 -42.203125 C 51.335938 -39.160156 52.882812 -35.628906 53.65625 -31.609375 L 42.640625 -31.609375 C 41.617188 -34.609375 39.898438 -36.988281 37.484375 -38.75 C 35.066406 -40.519531 32.265625 -41.40625 29.078125 -41.40625 C 26.222656 -41.40625 23.660156 -40.691406 21.390625 -39.265625 C 19.117188 -37.835938 17.316406 -35.914062 15.984375 -33.5 C 14.660156 -31.082031 14 -28.351562 14 -25.3125 C 14 -22.257812 14.660156 -19.535156 15.984375 -17.140625 C 17.316406 -14.753906 19.117188 -12.859375 21.390625 -11.453125 C 23.660156 -10.054688 26.222656 -9.359375 29.078125 -9.359375 C 32.410156 -9.359375 35.285156 -10.300781 37.703125 -12.1875 C 40.117188 -14.070312 41.789062 -16.632812 42.71875 -19.875 L 53.8125 -19.875 C 53.03125 -15.664062 51.488281 -11.988281 49.1875 -8.84375 C 46.894531 -5.707031 44.019531 -3.265625 40.5625 -1.515625 C 37.113281 0.222656 33.285156 1.09375 29.078125 1.09375 Z M 29.078125 1.09375 "/></g></g></g><g fill="#ffffff" fill-opacity="1"><g transform="translate(254.489042, 337.185634)"><g><path d="M 35.890625 -50.765625 L 46.84375 -50.765625 L 46.84375 0 L 35.890625 0 L 35.890625 -20.953125 L 16.828125 -20.953125 L 16.828125 0 L 5.796875 0 L 5.796875 -50.765625 L 16.828125 -50.765625 L 16.828125 -31.1875 L 35.890625 -31.1875 Z M 35.890625 -50.765625 "/></g></g></g></svg>